<svg width="50" height="50" viewBox="0 0 50 50" fill="none" xmlns="http://www.w3.org/2000/svg">
<path d="M39.5834 8.33325H10.4167C8.75908 8.33325 7.16937 8.99173 5.99727 10.1638C4.82517 11.3359 4.16669 12.9256 4.16669 14.5833V35.4166C4.16669 37.0742 4.82517 38.6639 5.99727 39.836C7.16937 41.0081 8.75908 41.6666 10.4167 41.6666H39.5834C41.241 41.6666 42.8307 41.0081 44.0028 39.836C45.1749 38.6639 45.8334 37.0742 45.8334 35.4166V14.5833C45.8334 12.9256 45.1749 11.3359 44.0028 10.1638C42.8307 8.99173 41.241 8.33325 39.5834 8.33325ZM39.5834 12.4999L26.0417 21.8124C25.725 21.9953 25.3657 22.0915 25 22.0915C24.6343 22.0915 24.2751 21.9953 23.9584 21.8124L10.4167 12.4999H39.5834Z" fill="white"/>
</svg>
