<svg width="179" height="252" viewBox="0 0 179 252" fill="none" xmlns="http://www.w3.org/2000/svg">
<path d="M178.689 49.3989L162.438 231.146L89.3909 251.363L16.5449 231.174L0.311157 49.3989H178.689Z" fill="#E44D26"/>
<path d="M89.5 235.91L148.526 219.573L162.412 64.2614H89.5V235.91Z" fill="#F16529"/>
<path d="M57.9093 108.85H89.5V86.556H33.5045L34.0387 92.537L39.5275 153.973H89.5V131.679H59.9503L57.9093 108.85ZM62.9423 165.121H40.5253L43.6536 200.126L89.3972 212.802L89.5 212.775V189.579L89.4021 189.605L64.5323 182.901L62.9423 165.121Z" fill="#EBEBEB"/>
<path d="M16.9071 0H28.2554V11.1934H38.6367V0H49.9857V33.8964H38.6374V22.546H28.2561V33.8964H16.9078V0H16.9071ZM64.9085 11.2409H54.9194V0H86.2542V11.2409H76.2589V33.8964H64.9106V11.2409H64.9099H64.9085ZM91.2271 0H103.06L110.339 11.9103L117.611 0H129.448V33.8964H118.146V17.0955L110.339 29.1475H110.143L102.331 17.0955V33.8964H91.2271V0ZM135.096 0H146.448V22.6926H162.407V33.8964H135.095V0H135.096Z" fill="black"/>
<path d="M89.4231 153.973H116.921L114.329 182.887L89.4224 189.598V212.792L135.202 200.126L135.538 196.359L140.786 137.666L141.331 131.679H89.4231V153.973ZM89.4231 108.796V108.85H143.363L143.81 103.839L144.828 92.537L145.362 86.556H89.4231V108.796V108.796Z" fill="white"/>
</svg>
