<svg width="179" height="252" viewBox="0 0 179 252" fill="none" xmlns="http://www.w3.org/2000/svg">
<path d="M89.3909 251.363L16.5449 231.174L0.311157 49.3989H178.689L162.438 231.146L89.3909 251.363Z" fill="#264DE4"/>
<path d="M148.526 219.573L162.412 64.2614H89.5V235.91L148.526 219.573Z" fill="#2965F1"/>
<path d="M37.5264 131.679L39.5275 153.973H89.5V131.679H37.5264ZM33.5045 86.556L35.5343 108.85H89.5V86.556H33.5045ZM89.5 189.579L89.4021 189.605L64.5323 182.901L62.9423 165.121H40.5253L43.6536 200.126L89.3972 212.802L89.5 212.775V189.579Z" fill="#EBEBEB"/>
<path d="M42.2915 0H69.3373V11.2918H53.6021V22.5837H69.3387V33.8748H42.2915V0ZM74.7472 0H101.794V9.81893H86.0577V11.7826H101.794V34.3662H74.7479V24.0552H90.4838V22.0915H74.7465V0H74.7472ZM107.204 0H134.25V9.81893H118.514V11.7826H134.25V34.3662H107.204V24.0552H122.939V22.0915H107.204V0H107.204Z" fill="black"/>
<path d="M141.331 131.679L145.362 86.556H89.4231V108.85H120.889L118.857 131.679H89.4231V153.973H116.921L114.329 182.887L89.4224 189.598V212.792L135.202 200.126L135.538 196.359L140.786 137.666L141.331 131.679Z" fill="white"/>
</svg>
