<svg width="152" height="228" viewBox="0 0 152 228" fill="none" xmlns="http://www.w3.org/2000/svg">
<path d="M38 228C58.976 228 76 210.976 76 190V152H38C17.024 152 0 169.024 0 190C0 210.976 17.024 228 38 228Z" fill="#0ACF83"/>
<path d="M0 114C0 93.024 17.024 76 38 76H76V152H38C17.024 152 0 134.976 0 114Z" fill="#A259FF"/>
<path d="M0 38C0 17.024 17.024 0 38 0H76V76H38C17.024 76 0 58.976 0 38Z" fill="#F24E1E"/>
<path d="M76 0H114C134.976 0 152 17.024 152 38C152 58.976 134.976 76 114 76H76V0Z" fill="#FF7262"/>
<path d="M152 114C152 134.976 134.976 152 114 152C93.024 152 76 134.976 76 114C76 93.024 93.024 76 114 76C134.976 76 152 93.024 152 114Z" fill="#1ABCFE"/>
</svg>
