<svg width="292" height="296" viewBox="0 0 292 296" fill="none" xmlns="http://www.w3.org/2000/svg">
<path d="M229.152 228.079C229.152 243.946 192.423 256.731 147.141 256.731C101.858 256.731 65.1297 243.832 65.1297 228.079C65.1297 212.211 101.858 199.426 147.141 199.426C192.423 199.426 229.152 212.211 229.152 228.079Z" fill="#9EDCF2"/>
<path d="M229.152 228.079C229.152 243.946 192.423 256.731 147.141 256.731C101.858 256.731 65.1297 243.832 65.1297 228.079C65.1297 212.211 101.858 199.426 147.141 199.426C192.423 199.426 229.152 212.211 229.152 228.079Z" fill="#7DBCE7"/>
<path d="M53.4953 143.719L51.1 151.938C51.1 151.938 50.5297 154.906 53.2672 155.477C56.2328 155.363 56.0047 152.623 55.7766 151.824L53.4953 143.719Z" fill="#9EDCF2"/>
<path d="M291.772 109.131L292 108.103C267.933 103.309 243.295 103.195 228.353 103.88C230.748 95.0899 231.547 84.8161 231.547 73.5149C231.547 57.1909 225.387 44.1774 215.578 34.3602C217.289 28.7667 219.57 16.324 213.297 0.456634C213.297 0.456634 202.119 -3.08212 176.683 13.9267C166.759 11.4154 156.152 10.1597 145.544 10.1597C133.909 10.1597 122.161 11.6437 111.097 14.6117C84.8625 -3.31043 73.3422 0.34248 73.3422 0.34248C65.8141 19.1778 70.4906 33.2187 71.8594 36.6433C62.9625 46.2322 57.6016 58.4466 57.6016 73.4007C57.6016 84.7019 58.8563 94.8616 62.05 103.651C46.9938 103.081 23.2687 103.309 0 107.989L0.228125 109.017C23.4969 104.336 47.45 104.222 62.3922 104.793C63.0766 106.619 63.875 108.446 64.6734 110.158C49.8453 110.615 24.6375 112.555 0.45625 119.405L0.798437 120.432C25.2078 113.583 50.6437 111.756 65.3578 111.3C74.2547 127.738 91.5922 138.468 122.617 141.779C118.169 144.747 113.72 149.769 111.895 158.331C105.85 161.185 86.9156 168.262 75.5094 148.628C75.5094 148.628 69.1219 136.984 56.9172 136.071C56.9172 136.071 45.0547 135.843 56.1188 143.491C56.1188 143.491 63.9891 147.258 69.4641 161.299C69.4641 161.299 76.65 185.271 110.983 177.509V202.052C110.983 202.052 110.298 210.842 102.2 213.695C102.2 213.695 97.4094 217.006 102.542 218.832C102.542 218.832 124.784 220.659 124.784 202.394V175.454C124.784 175.454 123.872 164.724 129.119 161.071V205.362C129.119 205.362 128.777 215.978 123.302 219.974C123.302 219.974 119.652 226.481 127.636 224.768C127.636 224.768 142.92 222.599 143.605 204.677L143.947 159.815H147.597L147.939 204.677C148.623 222.485 163.908 224.768 163.908 224.768C171.892 226.595 168.242 219.974 168.242 219.974C162.767 215.978 162.425 205.362 162.425 205.362V161.413C167.672 165.523 166.759 175.454 166.759 175.454V202.394C166.759 220.659 189.002 218.832 189.002 218.832C194.134 217.006 189.344 213.695 189.344 213.695C181.359 210.727 180.561 202.052 180.561 202.052V166.664C180.561 152.852 174.744 145.546 169.041 141.779C202.119 138.468 217.973 127.852 225.273 111.186C239.759 111.528 265.88 113.354 290.745 120.432L291.087 119.405C266.336 112.441 240.444 110.615 225.73 110.158C226.414 108.446 226.984 106.734 227.555 104.907C242.839 104.336 267.591 104.336 291.772 109.131Z" fill="#010101"/>
<path d="M199.153 72.7158C206.225 79.2225 210.445 86.985 210.445 95.3182C210.445 134.587 181.245 135.614 145.202 135.614C109.158 135.614 79.9578 130.135 79.9578 95.3182C79.9578 86.985 84.0641 79.2225 91.136 72.8299C102.884 62.0995 122.731 67.8072 145.202 67.8072C167.672 67.8072 187.405 61.9853 199.153 72.7158Z" fill="#F5CCB3"/>
<path d="M123.53 97.3729C123.53 108.217 117.484 116.893 109.956 116.893C102.428 116.893 96.3828 108.103 96.3828 97.3729C96.3828 86.5283 102.428 77.8527 109.956 77.8527C117.484 77.7385 123.53 86.5283 123.53 97.3729Z" fill="white"/>
<path d="M119.195 97.6011C119.195 104.793 115.089 110.615 110.184 110.615C105.166 110.615 101.173 104.793 101.173 97.6011C101.173 90.4095 105.28 84.5876 110.184 84.5876C115.089 84.5876 119.195 90.4095 119.195 97.6011Z" fill="#AF5C51"/>
<path d="M196.416 97.3729C196.416 108.217 190.37 116.893 182.842 116.893C175.314 116.893 169.269 108.103 169.269 97.3729C169.269 86.5283 175.314 77.8527 182.842 77.8527C190.256 77.7385 196.416 86.5283 196.416 97.3729Z" fill="white"/>
<path d="M191.967 97.6011C191.967 104.793 187.861 110.615 182.956 110.615C177.937 110.615 173.945 104.793 173.945 97.6011C173.945 90.4095 178.052 84.5876 182.956 84.5876C187.975 84.5876 191.967 90.4095 191.967 97.6011ZM148.852 114.724C148.852 116.551 147.369 118.149 145.43 118.149C143.605 118.149 142.008 116.665 142.008 114.724C142.008 112.784 143.491 111.3 145.43 111.3C147.255 111.3 148.852 112.784 148.852 114.724ZM137.559 123.286C137.331 122.715 137.673 122.144 138.244 121.916C138.814 121.688 139.384 122.03 139.612 122.601C140.525 125.112 142.806 126.71 145.43 126.71C148.053 126.71 150.334 124.998 151.247 122.601C151.475 122.03 152.045 121.688 152.616 121.916C153.186 122.144 153.528 122.715 153.3 123.286C152.159 126.596 148.966 128.879 145.43 128.879C141.894 128.879 138.7 126.596 137.559 123.286Z" fill="#AF5C51"/>
<path d="M62.1641 138.811C62.1641 139.724 61.1375 140.409 59.7688 140.409C58.5141 140.409 57.3734 139.724 57.3734 138.811C57.3734 137.897 58.4 137.212 59.7688 137.212C61.1375 137.212 62.1641 137.897 62.1641 138.811ZM68.7797 142.463C68.7797 143.377 67.7531 144.062 66.3844 144.062C65.1297 144.062 63.9891 143.377 63.9891 142.463C63.9891 141.55 65.0156 140.865 66.3844 140.865C67.7531 140.865 68.7797 141.55 68.7797 142.463ZM72.7719 147.258C72.7719 148.171 71.7453 148.856 70.3766 148.856C69.1219 148.856 67.9813 148.171 67.9813 147.258C67.9813 146.345 69.0078 145.66 70.3766 145.66C71.7453 145.546 72.7719 146.345 72.7719 147.258ZM76.4219 152.737C76.4219 153.651 75.3953 154.335 74.0266 154.335C72.7719 154.335 71.6313 153.651 71.6313 152.737C71.6313 151.824 72.6578 151.139 74.0266 151.139C75.3953 151.025 76.4219 151.824 76.4219 152.737ZM80.4141 157.76C80.4141 158.673 79.3875 159.358 78.0188 159.358C76.7641 159.358 75.6234 158.673 75.6234 157.76C75.6234 156.847 76.65 156.162 78.0188 156.162C79.3875 156.162 80.4141 156.847 80.4141 157.76ZM85.8891 162.212C85.8891 163.125 84.8625 163.81 83.4938 163.81C82.2391 163.81 81.0984 163.125 81.0984 162.212C81.0984 161.299 82.125 160.614 83.4938 160.614C84.8625 160.5 85.8891 161.299 85.8891 162.212ZM93.5313 165.066C93.5313 165.979 92.5047 166.664 91.1359 166.664C89.8813 166.664 88.7406 165.979 88.7406 165.066C88.7406 164.153 89.7672 163.468 91.1359 163.468C92.5047 163.468 93.5313 164.153 93.5313 165.066ZM101.173 165.066C101.173 165.979 100.147 166.664 98.7781 166.664C97.5234 166.664 96.3828 165.979 96.3828 165.066C96.3828 164.153 97.4094 163.468 98.7781 163.468C100.147 163.468 101.173 164.153 101.173 165.066ZM108.93 163.81C108.93 164.723 107.903 165.408 106.534 165.408C105.28 165.408 104.139 164.723 104.139 163.81C104.139 162.897 105.166 162.212 106.534 162.212C107.789 162.212 108.93 162.897 108.93 163.81Z" fill="#C4E5D9"/>
</svg>
