<svg width="179" height="179" viewBox="0 0 179 179" fill="none" xmlns="http://www.w3.org/2000/svg">
<path d="M0 0H179V179H0V0Z" fill="#F7DF1E"/>
<path d="M47.0658 149.585L60.7635 141.295C63.4066 145.981 65.8105 149.945 71.5769 149.945C77.1042 149.945 80.5899 147.783 80.5899 139.373V82.1784H97.411V139.611C97.411 157.033 87.1982 164.964 72.2978 164.964C58.8414 164.964 51.0304 157.995 47.0651 149.584L47.0658 149.585ZM106.548 147.783L120.244 139.853C123.85 145.741 128.536 150.066 136.826 150.066C143.796 150.066 148.241 146.581 148.241 141.775C148.241 136.008 143.675 133.965 135.985 130.601L131.78 128.797C119.644 123.632 111.594 117.144 111.594 103.446C111.594 90.8292 121.206 81.2163 136.226 81.2163C146.92 81.2163 154.61 84.9417 160.136 94.6742L147.039 103.086C144.154 97.9192 141.032 95.8768 136.225 95.8768C131.299 95.8768 128.174 99.0009 128.174 103.086C128.174 108.132 131.299 110.176 138.508 113.3L142.713 115.102C157.012 121.231 165.062 127.478 165.062 141.535C165.062 156.676 153.167 164.966 137.186 164.966C121.566 164.966 111.473 157.516 106.547 147.783" fill="black"/>
</svg>
