<svg width="50" height="50" viewBox="0 0 50 50" fill="none" xmlns="http://www.w3.org/2000/svg">
<path d="M45.8334 13.6459C45.8099 12.7471 45.7404 11.8501 45.625 10.9584C45.4695 10.1774 45.2102 9.42072 44.8542 8.70841C44.4818 7.93572 43.9817 7.23139 43.375 6.62508C42.7627 6.02551 42.0596 5.52631 41.2917 5.14591C40.5784 4.79684 39.8217 4.54461 39.0417 4.39591C38.1585 4.26362 37.2678 4.18708 36.375 4.16675H13.6459C12.747 4.19016 11.85 4.25969 10.9584 4.37508C10.1774 4.53064 9.42066 4.78988 8.70835 5.14591C7.93566 5.51828 7.23133 6.01836 6.62502 6.62508C6.02545 7.2374 5.52625 7.94049 5.14585 8.70841C4.79678 9.42167 4.54455 10.1784 4.39585 10.9584C4.26356 11.8416 4.18702 12.7323 4.16669 13.6251V36.3543C4.1901 37.2531 4.25963 38.1501 4.37502 39.0418C4.53058 39.8227 4.78982 40.5794 5.14585 41.2918C5.51822 42.0644 6.0183 42.7688 6.62502 43.3751C7.23733 43.9747 7.94042 44.4739 8.70835 44.8543C9.42161 45.2033 10.1783 45.4556 10.9584 45.6042C11.8416 45.7365 12.7322 45.8131 13.625 45.8334H36.3542C37.253 45.81 38.15 45.7405 39.0417 45.6251C39.8227 45.4695 40.5794 45.2103 41.2917 44.8543C42.0644 44.4819 42.7687 43.9818 43.375 43.3751C43.9746 42.7628 44.4738 42.0597 44.8542 41.2918C45.2033 40.5785 45.4555 39.8218 45.6042 39.0418C45.7365 38.1586 45.813 37.2679 45.8334 36.3751V13.6459ZM25.4792 39.5834C22.9772 39.5711 20.519 38.9261 18.3334 37.7084L10.4167 39.7918L12.5 32.0417C11.1565 29.7844 10.4375 27.2103 10.4167 24.5834C10.425 21.6312 11.3067 18.7474 12.9508 16.2953C14.5948 13.8432 16.9278 11.9324 19.6557 10.8037C22.3836 9.67488 25.3846 9.37856 28.2806 9.95204C31.1766 10.5255 33.8382 11.9431 35.9301 14.0263C38.022 16.1096 39.4507 18.7652 40.0362 21.6588C40.6217 24.5524 40.3378 27.5546 39.2204 30.2872C38.103 33.0198 36.2019 35.3606 33.7567 37.0149C31.3114 38.6692 28.4314 39.5628 25.4792 39.5834ZM25.4792 12.2292C23.2705 12.2545 21.1079 12.8646 19.2116 13.9975C17.3153 15.1303 15.7531 16.7454 14.684 18.6782C13.6148 20.6111 13.077 22.7928 13.1252 25.0012C13.1734 27.2095 13.8059 29.3657 14.9584 31.2501L15.25 31.7292L14 36.2918L18.75 35.0001L19.2084 35.2709C21.1033 36.3871 23.2592 36.9835 25.4584 37.0001C28.7736 37.0001 31.953 35.6831 34.2972 33.3389C36.6414 30.9947 37.9584 27.8153 37.9584 24.5001C37.9584 21.1849 36.6414 18.0055 34.2972 15.6612C31.953 13.317 28.7736 12.0001 25.4584 12.0001L25.4792 12.2292ZM32.7709 29.9792C32.498 30.4344 32.1326 30.8272 31.6984 31.1322C31.2642 31.4373 30.7707 31.6478 30.25 31.7501C29.472 31.8923 28.671 31.8422 27.9167 31.6042C27.207 31.3824 26.5113 31.118 25.8334 30.8126C23.2578 29.5202 21.0614 27.5822 19.4584 25.1876C18.5873 24.0782 18.0587 22.7387 17.9375 21.3334C17.9251 20.7496 18.0355 20.1698 18.2617 19.6314C18.4878 19.0931 18.8245 18.6083 19.25 18.2084C19.3754 18.0663 19.5291 17.9521 19.7014 17.8731C19.8736 17.7942 20.0605 17.7523 20.25 17.7501H20.8334C21.0625 17.7501 21.375 17.7501 21.6667 18.3959C21.9584 19.0417 22.7292 20.9792 22.8334 21.1667C22.8845 21.2667 22.9112 21.3774 22.9112 21.4897C22.9112 21.602 22.8845 21.7126 22.8334 21.8126C22.7413 22.039 22.6148 22.2498 22.4584 22.4376C22.2709 22.6667 22.0625 22.9376 21.8959 23.1042C21.7292 23.2709 21.5209 23.4792 21.7292 23.8542C22.296 24.8109 22.9977 25.6809 23.8125 26.4376C24.6999 27.2217 25.7144 27.8487 26.8125 28.2917C27.1875 28.4792 27.4167 28.4584 27.625 28.2917C27.8334 28.1251 28.5625 27.2084 28.8125 26.8334C29.0625 26.4584 29.3125 26.5209 29.6459 26.6459C29.9792 26.7709 31.8334 27.6667 32.2084 27.8542C32.5834 28.0417 32.8125 28.1251 32.9167 28.2917C33.007 28.837 32.9568 29.3963 32.7709 29.9167V29.9792Z" fill="white"/>
</svg>
