<svg width="241" height="241" viewBox="0 0 241 241" fill="none" xmlns="http://www.w3.org/2000/svg">
<path fill-rule="evenodd" clip-rule="evenodd" d="M120.5 15.0625C141.354 15.0625 161.739 21.2463 179.078 32.8319C196.417 44.4175 209.931 60.8846 217.912 80.1508C225.892 99.417 227.98 120.617 223.912 141.07C219.843 161.523 209.801 180.31 195.056 195.056C180.31 209.801 161.523 219.843 141.07 223.912C120.617 227.98 99.417 225.892 80.1508 217.912C60.8846 209.931 44.4175 196.417 32.8319 179.078C21.2463 161.739 15.0625 141.354 15.0625 120.5C15.0625 92.5362 26.1711 65.7178 45.9444 45.9444C65.7178 26.1711 92.5362 15.0625 120.5 15.0625Z" fill="#CC6699"/>
<path d="M186.639 60.1898C181.865 41.4671 150.813 35.3366 121.426 45.7448C103.022 51.9291 86.0186 61.6824 71.3887 74.4464C55.2041 89.5842 52.6208 102.764 53.6827 108.269C57.4484 127.7 84.0563 140.398 94.9992 149.819V149.872C91.7758 151.461 68.1578 163.428 62.6148 175.629C56.7856 188.522 63.5411 197.771 68.0222 199.013C74.7501 200.633 81.8162 200.106 88.2292 197.506C94.6422 194.906 100.08 190.363 103.781 184.516C106.839 179.778 108.752 174.393 109.369 168.788C109.986 163.183 109.29 157.511 107.335 152.222C112.606 150.882 118.085 150.568 123.475 151.295C141.972 153.457 145.602 165.002 144.909 169.837C144.583 171.558 143.89 173.189 142.878 174.619C141.866 176.048 140.557 177.243 139.042 178.122C137.747 178.927 137.347 179.199 137.46 179.801C137.619 180.667 138.213 180.637 139.321 180.449C142.1 179.573 144.549 177.876 146.346 175.582C148.142 173.287 149.2 170.501 149.382 167.593C149.827 156.296 138.974 143.598 119.754 143.922C114.172 143.763 108.602 144.526 103.268 146.182C103.002 145.877 102.73 145.575 102.455 145.278C90.5708 132.603 68.6097 123.633 69.536 106.59C69.8749 100.392 72.0289 84.0789 111.711 64.2868C144.246 48.072 170.289 52.538 174.793 62.4266C181.224 76.5552 160.875 102.802 127.09 106.59C123.356 107.348 119.499 107.255 115.805 106.319C112.112 105.383 108.676 103.627 105.754 101.182C103.976 99.2242 103.713 99.1414 103.05 99.5029C101.973 100.098 102.658 101.83 103.05 102.854C104.344 105.186 106.09 107.235 108.186 108.883C110.283 110.531 112.687 111.743 115.258 112.449C128.542 115.335 142.397 113.965 154.858 108.533C175.35 100.633 191.331 78.6037 186.639 60.1898ZM99.5481 155.618C101.044 160.775 100.968 166.26 99.3297 171.374C99.1539 171.906 98.9606 172.433 98.7497 172.955C98.5389 173.477 98.3104 173.979 98.0644 174.461C96.7969 177.055 95.1551 179.448 93.1917 181.563C87.0688 188.244 78.5057 190.774 74.838 188.643C70.8766 186.346 72.8573 176.924 79.9593 169.415C85.4163 164.019 91.7078 159.538 98.5916 156.145L99.5481 155.618Z" fill="white"/>
</svg>
